<?xml version="1.0" encoding="UTF-8" standalone="no"?>
<!DOCTYPE svg PUBLIC "-//W3C//DTD SVG 1.1//EN" "http://www.w3.org/Graphics/SVG/1.1/DTD/svg11.dtd">
<svg version="1.1" xmlns="http://www.w3.org/2000/svg" xmlns:xlink="http://www.w3.org/1999/xlink" preserveAspectRatio="xMidYMid meet" viewBox="-1.0000000000000284 304.72713247282996 644 27.168428282629804" width="640" height="23.17"><defs><path d="M40.82 314.3C44.93 313.3 48.37 313.37 52.3 313.45C55.57 313.5 59.03 313.62 62.46 313C66.68 312.24 71.12 311.21 75.06 310.19C77.24 309.63 79.1 308.91 81.51 308.71C89.66 307.98 96.73 310.14 104.18 312.52C117.6 316.81 129.39 320.12 143.64 318.61C145.68 318.41 147.66 318.06 149.66 317.64C158.49 315.73 166.45 312.04 174.85 310.06C181.85 308.4 187.44 308.91 194.72 309.36C200.11 309.68 206.81 310.46 212.73 312.14C217.72 313.55 221.08 315.7 226.93 316.71C236.91 318.44 244.82 316.58 254.15 314.3C258.26 313.3 261.7 313.37 265.64 313.45C268.9 313.5 272.36 313.62 275.8 313C280.01 312.24 284.45 311.21 288.39 310.19C290.57 309.61 292.43 308.91 294.84 308.71C302.97 307.98 310.07 310.14 317.52 312.52C330.94 316.81 342.73 320.12 356.98 318.61C359.01 318.41 360.99 318.06 363 317.64C371.8 315.75 379.76 312.07 388.13 310.09C395.13 308.43 400.7 308.93 408 309.38C413.42 309.71 420.17 310.49 426.11 312.19C431.11 313.6 434.39 315.73 440.21 316.73C450.2 318.46 458.1 316.61 467.43 314.32C471.55 313.32 474.98 313.4 478.92 313.45C482.18 313.5 485.64 313.62 489.08 313C493.3 312.24 497.74 311.21 501.67 310.19C503.86 309.61 505.71 308.91 508.15 308.71C516.27 307.98 523.37 310.14 530.82 312.52C544.25 316.81 556.04 320.12 570.29 318.61C572.32 318.41 574.3 318.06 576.31 317.64C585.11 315.75 593.06 312.07 601.47 310.09C608.47 308.43 614.04 308.93 621.34 309.38C626.93 309.73 633.9 310.54 639.97 312.34C639.97 312.13 639.97 310.4 639.97 310.19C634 308.68 626.73 307.98 621.29 307.55C613.91 306.97 608.74 305.92 601.64 307.55C593.34 309.46 585.51 313.35 576.58 315.15C574.6 315.55 572.59 315.85 570.56 316.03C556.24 317.23 544.75 313.55 531.4 309.28C523.95 306.9 516.58 305.04 508.57 305.97C505.89 306.27 503.98 307.2 501.62 307.93C497.41 309.23 492.52 310.51 487.88 311.34C484.09 312.02 480.23 311.69 476.66 311.44C472.27 311.14 468.56 310.81 463.94 311.89C455.39 313.9 448.19 315.65 439.08 314.12C434.44 313.35 430.48 311.11 426.04 310.06C420.19 308.66 413.27 308 408.03 307.6C400.65 307.02 395.48 305.97 388.39 307.6C380.08 309.48 372.25 313.4 363.32 315.2C361.34 315.6 359.34 315.91 357.3 316.08C342.98 317.28 331.49 313.6 318.14 309.33C310.69 306.95 303.32 305.07 295.32 306.02C292.63 306.32 290.72 307.25 288.37 307.98C284.15 309.28 279.26 310.56 274.62 311.39C270.81 312.07 266.97 311.74 263.41 311.49C259.02 311.19 255.3 310.86 250.69 311.94C242.13 313.95 234.93 315.7 225.8 314.17C221.16 313.4 217.2 311.16 212.71 310.11C206.86 308.73 199.96 308.05 194.72 307.65C187.34 307.07 182.15 306.02 175.08 307.65C166.77 309.56 158.95 313.45 150.02 315.25C148.03 315.65 146.03 315.96 143.99 316.13C129.67 317.33 118.18 313.65 104.84 309.38C97.38 307.02 90.01 305.14 82.01 306.07C79.32 306.37 77.42 307.3 75.06 308.03C70.74 309.23 65.83 310.51 61.21 311.34C57.4 312.02 53.56 311.69 50 311.44C45.61 311.14 41.89 310.81 37.28 311.89C28.72 313.9 21.52 315.65 12.39 314.12C7.9 313.35 4.44 311.46 0 310.21C0 310.42 0 312.13 0 312.34C4.24 314.22 8.65 315.88 13.6 316.73C23.58 318.44 31.48 316.58 40.82 314.3" id="hVCxWwyXX"></path><path d="M47.89 319.14C51 318.29 53.89 317.84 56.92 317.44C59.55 317.08 62.26 316.78 64.97 316.31C68.36 315.73 71.87 315.13 75.28 314.7C77.09 314.45 78.82 314.12 80.75 314.17C89.16 314.35 95.68 316.53 103.15 318.97C116.73 323.36 129.09 325.86 143.22 323.78C145.2 323.48 147.21 323.1 149.21 322.6C157.72 320.57 166 317.28 174.5 315.13C181.3 313.42 187.7 312.77 194.79 313C200.44 313.2 206.61 314.15 212.66 316.33C218.68 318.49 222.59 320.72 229.29 321.93C241.03 324.03 250.39 322.1 261.22 319.14C264.33 318.29 267.22 317.84 270.25 317.44C272.89 317.08 275.6 316.78 278.31 316.31C281.69 315.73 285.21 315.15 288.62 314.7C290.42 314.45 292.15 314.12 294.09 314.17C302.49 314.37 309.01 316.56 316.49 318.97C330.06 323.36 342.43 325.86 356.55 323.78C358.53 323.51 360.54 323.1 362.55 322.63C371.05 320.6 379.33 317.31 387.83 315.15C394.63 313.45 401.03 312.79 408.13 313.02C413.77 313.22 419.92 314.15 425.94 316.33C431.93 318.51 435.9 320.75 442.62 321.98C454.36 324.08 463.72 322.15 474.56 319.19C477.67 318.34 480.55 317.89 483.59 317.49C486.22 317.13 488.93 316.83 491.64 316.36C495.03 315.78 498.54 315.2 501.95 314.75C503.76 314.53 505.49 314.17 507.42 314.22C515.82 314.42 522.35 316.61 529.82 319.02C543.39 323.41 555.76 325.91 569.88 323.83C571.87 323.53 573.87 323.15 575.88 322.68C584.38 320.65 592.66 317.36 601.17 315.2C607.96 313.5 614.36 312.84 621.46 313.07C627.33 313.27 633.75 314.27 640 316.66C640 316.43 640 314.65 640 314.42C633.83 312.34 627.16 311.41 621.41 311.14C614.21 310.79 608.22 310.86 601.32 312.54C592.86 314.6 584.74 318.09 576.11 320.07C574.1 320.52 572.09 320.9 570.08 321.15C555.91 322.95 543.84 320.04 530.32 315.7C522.87 313.3 516.05 310.94 507.77 311.41C505.59 311.54 503.81 312.04 501.8 312.42C498.14 313.15 494.15 313.97 490.36 314.63C487.28 315.15 484.19 315.25 481.25 315.4C477.77 315.58 474.61 315.75 470.99 316.68C460.88 319.29 452.28 321.2 441.42 319.29C435.1 318.19 431.46 315.96 425.91 314.17C419.97 312.27 413.57 311.41 408.08 311.14C400.88 310.79 394.88 310.86 387.98 312.54C379.53 314.6 371.4 318.09 362.75 320.07C360.74 320.52 358.73 320.9 356.75 321.15C342.58 322.95 330.49 320.04 316.99 315.7C309.54 313.3 302.72 310.94 294.44 311.41C292.25 311.54 290.47 312.04 288.47 312.42C284.8 313.15 280.82 313.97 277.03 314.63C273.94 315.18 270.86 315.25 267.92 315.4C264.43 315.58 261.27 315.75 257.66 316.68C247.55 319.29 238.95 321.2 228.08 319.29C221.76 318.21 218.15 315.98 212.61 314.2C206.66 312.29 200.26 311.44 194.77 311.16C187.57 310.81 181.57 310.89 174.68 312.57C166.22 314.63 158.09 318.11 149.46 320.09C147.46 320.55 145.45 320.92 143.47 321.17C129.29 322.98 117.2 320.07 103.71 315.7C96.26 313.3 89.43 310.94 81.15 311.41C78.97 311.54 77.19 312.02 75.18 312.42C71.5 313.17 67.53 313.97 63.72 314.65C60.63 315.18 57.55 315.28 54.61 315.43C51.13 315.6 47.96 315.78 44.35 316.71C34.24 319.32 25.64 321.22 14.78 319.32C9.41 318.39 4.59 316.53 0 314.45C0 314.66 0 316.37 0 316.58C4.97 318.89 10.16 320.9 15.98 321.95C27.72 324.06 37.08 322.1 47.89 319.14" id="es5NMbQYO"></path><path d="M148.96 325.06C132.46 329.25 118.18 327.22 102.63 322.18C95.15 319.74 88.88 317.11 80.38 316.91C69.94 316.66 60.93 318.76 51.45 321.57C39.94 324.99 29.78 326.87 17.16 324.56C10.91 323.41 5.34 321.2 0 318.69C0 318.94 0 320.9 0 321.15C0.55 321.27 1.13 321.5 1.68 321.62C3.66 322.15 5.85 322.73 7.95 323.38C12.12 324.66 16.28 326.14 20.85 326.82C33.09 328.6 42.7 326.99 53.66 323.66C62.69 320.9 71.3 318.82 81.28 318.92C89.61 318.99 95.9 321.37 103.25 323.66C110.58 325.91 117.63 327.62 124.7 328.42C132.43 329.28 140.26 329.05 148.74 327.12C155.13 325.66 161.53 323.53 167.95 321.57C182.28 317.21 196.9 315.65 212.68 320.92C213.43 321.17 214.21 321.42 214.99 321.62C216.97 322.15 219.15 322.73 221.26 323.38C225.42 324.66 229.59 326.14 234.15 326.82C246.4 328.6 256.01 326.99 266.97 323.66C276 320.9 284.58 318.82 294.59 318.92C302.92 318.99 309.19 321.37 316.56 323.66C323.89 325.91 330.94 327.62 338.01 328.42C345.74 329.28 353.57 329.05 362.04 327.12C368.44 325.66 374.84 323.53 381.26 321.57C395.53 317.23 410.11 315.65 425.81 320.85C426.64 321.12 427.47 321.4 428.32 321.62C430.3 322.15 432.49 322.73 434.59 323.38C438.76 324.66 442.92 326.14 447.49 326.82C459.73 328.6 469.34 326.99 480.3 323.66C489.33 320.9 497.94 318.82 507.92 318.92C516.25 318.99 522.55 321.37 529.9 323.66C537.22 325.91 544.27 327.62 551.35 328.42C559.07 329.28 566.9 329.05 575.38 327.12C581.77 325.66 588.17 323.53 594.59 321.57C609.12 317.13 623.94 315.6 639.97 321.15C639.97 320.9 639.97 318.94 639.97 318.69C616.77 308.91 596.07 319.87 575.6 325.06C559.1 329.25 544.82 327.22 529.27 322.15C521.79 319.72 515.52 317.08 507.02 316.88C496.58 316.63 487.58 318.74 478.09 321.55C466.58 324.96 456.42 326.84 443.8 324.53C436.75 323.26 432.16 320.87 425.81 318.34C402.96 309.18 382.51 319.94 362.3 325.06C345.79 329.25 331.51 327.22 315.96 322.15C308.49 319.72 302.21 317.08 293.71 316.88C283.27 316.63 274.27 318.74 264.79 321.55C253.27 324.96 243.11 326.84 230.49 324.53C223.37 323.23 218.73 320.8 212.33 318.26C189.53 309.23 169.13 319.94 148.96 325.06" id="a2tnoRtYuw"></path></defs><g><g><use xlink:href="#hVCxWwyXX" opacity="1" fill="#fed600" fill-opacity="1"></use><g><use xlink:href="#hVCxWwyXX" opacity="1" fill-opacity="0" stroke="#000000" stroke-width="1" stroke-opacity="0"></use></g></g><g><use xlink:href="#es5NMbQYO" opacity="1" fill="#fcb415" fill-opacity="1"></use><g><use xlink:href="#es5NMbQYO" opacity="1" fill-opacity="0" stroke="#000000" stroke-width="1" stroke-opacity="0"></use></g></g><g><use xlink:href="#a2tnoRtYuw" opacity="1" fill="#fed600" fill-opacity="1"></use><g><use xlink:href="#a2tnoRtYuw" opacity="1" fill-opacity="0" stroke="#000000" stroke-width="1" stroke-opacity="0"></use></g></g></g></svg>